<svg xmlns="http://www.w3.org/2000/svg" viewBox="0 0 512 512"><rect width="512" height="512" rx="108" fill="#020402"/><circle cx="256" cy="256" r="190" fill="none" stroke="#76ff72" stroke-width="24"/><path d="M256 116c-84 0-132 54-132 132 0 54 26 88 60 106v70h144v-70c36-18 62-52 62-106 0-78-50-132-134-132z" fill="#76ff72"/><g fill="#020402"><circle cx="206" cy="244" r="42"/><circle cx="306" cy="244" r="42"/><path d="M256 278l-34 70h68z"/><rect x="184" y="374" width="28" height="50"/><rect x="228" y="374" width="28" height="50"/><rect x="272" y="374" width="28" height="50"/><rect x="316" y="374" width="28" height="50"/></g><text x="256" y="82" text-anchor="middle" font-size="50" fill="#76ff72" font-family="monospace" font-weight="900">GO</text></svg>
